<?xml version="1.0" encoding="UTF-8" standalone="no"?>
<!-- Created with Inkscape (http://www.inkscape.org/) -->

<svg
   width="46.428497mm"
   height="43.466324mm"
   viewBox="0 0 46.428497 43.466324"
   version="1.1"
   id="svg5"
   xmlns:inkscape="http://www.inkscape.org/namespaces/inkscape"
   xmlns:sodipodi="http://sodipodi.sourceforge.net/DTD/sodipodi-0.dtd"
   xmlns="http://www.w3.org/2000/svg"
   xmlns:svg="http://www.w3.org/2000/svg">
  <sodipodi:namedview
     id="namedview7"
     pagecolor="#ffffff"
     bordercolor="#000000"
     borderopacity="0.25"
     inkscape:showpageshadow="2"
     inkscape:pageopacity="0.0"
     inkscape:pagecheckerboard="0"
     inkscape:deskcolor="#d1d1d1"
     inkscape:document-units="mm"
     showgrid="false" />
  <defs
     id="defs2" />
  <g
     inkscape:label="Camada 1"
     inkscape:groupmode="layer"
     id="layer1"
     transform="translate(-17.308558,-12.54726)">
    <path
       style="fill:#ffffff;fill-opacity:1;stroke:none;stroke-width:1;stroke-linejoin:round;stroke-dasharray:none;stroke-opacity:1"
       d="m 50.709644,26.054116 c 0,0 8.379389,10.327669 4.067606,21.068342 -2.014849,4.793957 -8.655943,8.391126 -16.576378,8.391126 -7.315412,0 -13.539469,-3.068601 -16.079732,-7.283159 -5.686612,-6.89319 -4.118431,-14.734093 -4.118431,-14.734093 0,0 5.39454,-0.376362 9.577521,2.472087 2.771136,-1.572887 6.524833,-2.534814 10.620642,-2.534814 2.113276,0 4.135476,0.25608 5.978829,0.800873 0,0 2.661949,-5.913566 -1.146428,-11.208296 -0.65818,-1.129443 -0.743157,-2.331163 -0.755132,-3.455292 0,-3.602901 2.920729,-6.52363 6.52363,-6.52363 3.602901,0 6.52363,2.920729 6.317336,6.503224 1.731805,1.867999 6.204343,3.010981 7.19824,2.514032 0.993896,-0.496949 0.795118,1.142982 0.795118,1.142982 1.194749,2.769236 -6.388649,0.687391 -9.667377,0.921711 -0.681265,0.79665 -1.638526,1.463984 -2.735444,1.924907 z"
       id="path956-7"
       sodipodi:nodetypes="ccscccscccscsccc" />
    <path
       id="rect5022"
       style="fill:#ffe597;stroke-linecap:round;stroke-linejoin:round"
       d="m 55.119109,19.550484 c 2.359341,1.364579 4.800934,2.556428 7.814,2.548184 l -0.0496,2.243765 -9.321907,-0.499792 c 0,0 -1.656312,-1.518645 -1.431698,-2.432205 0.280191,-1.139601 2.989207,-1.859952 2.989207,-1.859952 z"
       sodipodi:nodetypes="ccccsc" />
    <path
       style="fill:#dddddd;fill-opacity:1;stroke:none;stroke-width:1;stroke-linecap:round;stroke-linejoin:round;stroke-dasharray:none;stroke-opacity:1"
       d="m 50.709644,26.054116 c -3.748005,-1.455162 -8.431501,-6.483226 -8.431501,-6.483226 2.058864,5.847082 2.116953,5.999526 7.565798,9.301821 3.712207,2.416546 4.32762,6.962137 6.133965,10.688963 -1.287728,-4.565638 -1.529875,-9.272183 -5.268262,-13.507558"
       id="path4294"
       sodipodi:nodetypes="ccccc" />
    <path
       id="path956-5"
       style="fill:#dddddd;fill-opacity:1;stroke:none;stroke-width:1;stroke-dasharray:none;stroke-opacity:1"
       d="m 21.957276,48.005516 c 0.06009,0.07512 0.120105,0.150401 0.181901,0.225309 2.540261,4.214554 8.764234,7.282759 16.079639,7.282759 7.426327,0 13.728169,-3.16194 16.146301,-7.508068 -11.639338,6.312622 -22.070434,3.997059 -32.407841,0 z"
       sodipodi:nodetypes="ccscc" />
    <path
       style="fill:none;stroke:#000000;stroke-width:1;stroke-linejoin:round;stroke-dasharray:none;stroke-opacity:1"
       d="m 50.709646,26.054116 c 0,0 8.379389,10.327669 4.067606,21.068342 -2.014849,4.793957 -8.655943,8.391126 -16.576378,8.391126 -7.315412,0 -13.539469,-3.068601 -16.079732,-7.283159 -5.686612,-6.89319 -4.118431,-14.734093 -4.118431,-14.734093 0,0 5.39454,-0.376362 9.577521,2.472087 2.771136,-1.572887 6.524833,-2.534814 10.620642,-2.534814 2.113276,0 4.135476,0.25608 5.978829,0.800873 0,0 2.661949,-5.913566 -1.146428,-11.208296 -0.65818,-1.129443 -0.743157,-2.331163 -0.755132,-3.455292 0,-3.602901 2.920729,-6.52363 6.52363,-6.52363 3.602901,0 6.52363,2.920729 6.317336,6.503224 1.731805,1.867999 6.204343,3.010981 7.19824,2.514032 0.993896,-0.496949 0.795118,1.142982 0.795118,1.142982 1.194749,2.769236 -6.388649,0.687391 -9.667377,0.921711 -0.681265,0.79665 -1.638526,1.463984 -2.735444,1.924907 z"
       id="path956"
       sodipodi:nodetypes="ccscccscccscsccc" />
    <path
       style="fill:none;stroke:#000000;stroke-width:1;stroke-linecap:round;stroke-dasharray:none;stroke-opacity:1"
       d="m 45.038139,37.197239 c 5.708176,2.069996 5.018177,14.113623 -16.18362,6.774537"
       id="path962" />
    <ellipse
       style="fill:#000000;fill-opacity:1;stroke:none;stroke-width:1;stroke-linecap:round;stroke-linejoin:round;stroke-dasharray:none;stroke-opacity:1"
       id="path7413"
       cx="49.002129"
       cy="18.305372"
       rx="0.82577986"
       ry="1.2451115" />
  </g>
</svg>
